<svg width="425" height="180" viewBox="0 0 425 180" fill="none" xmlns="http://www.w3.org/2000/svg">
<path d="M19.5312 89.8438C19.5312 98.3724 22.526 105.664 28.5156 111.719C34.5703 117.708 41.862 120.703 50.3906 120.703V140.234C41.0807 140.234 32.6172 137.988 25 133.496C17.3828 128.939 11.2956 122.852 6.73828 115.234C2.24609 107.552 0 99.0885 0 89.8438H19.5312ZM19.5312 59.5703V89.8438H0V0H19.5312V40.0391H38.3789V59.5703H19.5312Z" fill="white"/>
<path d="M81.9336 101.465C85.5143 109.408 91.0807 114.974 98.6328 118.164C106.25 121.289 114.128 121.289 122.266 118.164L129.688 136.23C123.307 138.77 116.927 140.039 110.547 140.039C100.651 140.039 91.4388 137.305 82.9102 131.836C74.4466 126.302 68.099 118.652 63.8672 108.887C58.7891 95.9961 58.8216 83.138 63.9648 70.3125C69.4336 57.6172 78.5156 48.5352 91.2109 43.0664C97.2656 40.7227 102.962 39.5182 108.301 39.4531C113.639 39.388 118.132 39.8112 121.777 40.7227C125.488 41.569 127.897 42.2526 129.004 42.7734L121.875 60.9375C121.615 60.8073 120.378 60.4492 118.164 59.8633C115.951 59.2773 113.118 58.9844 109.668 58.9844C106.217 58.9193 102.572 59.6354 98.7305 61.1328C90.918 64.4531 85.3516 70.0195 82.0312 77.832C78.8411 85.7096 78.8086 93.5872 81.9336 101.465Z" fill="white"/>
<path d="M267.09 39.9414C276.335 39.9414 284.766 42.2201 292.383 46.7773C300.065 51.3346 306.152 57.4219 310.645 65.0391C315.202 72.6562 317.48 81.0872 317.48 90.332V140.234H297.949V90.332C297.949 81.8685 294.922 74.6094 288.867 68.5547C282.878 62.5 275.618 59.4727 267.09 59.4727C258.822 59.4727 251.758 62.3047 245.898 67.9688C240.039 73.5677 236.849 80.5664 236.328 88.9648C236.328 89.4206 236.328 89.8763 236.328 90.332H236.23V140.234H216.699V90.332C216.699 89.8763 216.699 89.4206 216.699 88.9648C216.178 80.5664 212.988 73.5677 207.129 67.9688C201.27 62.3047 194.206 59.4727 185.938 59.4727C177.409 59.4727 170.117 62.5 164.062 68.5547C158.073 74.6094 155.078 81.8685 155.078 90.332V140.234H135.547V90.332C135.547 81.0872 137.793 72.6562 142.285 65.0391C146.842 57.4219 152.93 51.3346 160.547 46.7773C168.164 42.2201 176.628 39.9414 185.938 39.9414C194.271 39.9414 201.953 41.7969 208.984 45.5078C216.016 49.2188 221.842 54.2318 226.465 60.5469C231.152 54.2318 237.012 49.2188 244.043 45.5078C251.074 41.7969 258.757 39.9414 267.09 39.9414Z" fill="white"/>
<path d="M373.828 39.4531C383.138 39.4531 391.602 41.7318 399.219 46.2891C406.836 50.8464 412.891 56.9336 417.383 64.5508C421.94 72.168 424.219 80.599 424.219 89.8438C424.219 99.1536 421.94 107.617 417.383 115.234C412.891 122.852 406.836 128.939 399.219 133.496C391.602 137.988 383.138 140.234 373.828 140.234C368.034 140.234 362.5 139.323 357.227 137.5C352.018 135.612 347.266 133.008 342.969 129.688V179.688H323.438V89.4531C323.633 80.1432 325.977 71.7448 330.469 64.2578C334.961 56.7057 341.016 50.6836 348.633 46.1914C356.25 41.6992 364.648 39.4531 373.828 39.4531ZM373.828 120.703C382.357 120.703 389.616 117.708 395.605 111.719C401.66 105.664 404.688 98.3724 404.688 89.8438C404.688 81.3802 401.66 74.1211 395.605 68.0664C389.616 62.0117 382.357 58.9844 373.828 58.9844C365.365 58.9844 358.105 62.0117 352.051 68.0664C345.996 74.1211 342.969 81.3802 342.969 89.8438C342.969 98.3724 345.996 105.664 352.051 111.719C358.105 117.708 365.365 120.703 373.828 120.703Z" fill="white"/>
</svg>
