<svg width="161" height="161" viewBox="0 0 161 161" fill="none" xmlns="http://www.w3.org/2000/svg">
<path d="M139.207 45.639H123.683C123.683 45.639 123.599 54.5463 123.514 56.2429H139.207C145.061 56.2429 149.811 60.9934 149.811 66.8468V93.3988C149.811 99.2522 145.061 104.003 139.207 104.003H109.517C103.324 104.003 98.7431 103.409 95.3499 102.221C90.5145 100.609 88.0545 97.81 86.8668 94.0775C84.4916 94.1623 82.2011 94.1623 80.3348 94.1623C78.8927 94.1623 77.4506 94.1623 76.0085 94.1623C77.7051 102.391 82.4556 109.941 95.4347 113.08C98.0645 113.673 101.034 114.098 104.257 114.352V138.953C104.257 144.806 99.5066 149.557 93.6533 149.557H66.9316C61.0782 149.557 56.3277 144.806 56.3277 138.953V109.262C56.3277 85.3399 65.3198 85.3399 80.25 85.3399C94.8409 85.3399 114.861 85.3399 114.861 50.7289V21.0381C114.861 9.33143 105.275 -0.254456 93.5685 -0.254456L66.9316 3.70443e-05C55.2249 3.70443e-05 45.639 9.58593 45.639 21.2926V45.639H21.2925C9.50106 45.639 0 55.2249 0 66.9316V93.4837C0 105.19 9.50106 114.776 21.2925 114.776H36.8166V109.432C36.8166 107.566 36.9014 105.784 36.9863 104.088H21.2925C15.4392 104.088 10.6887 99.337 10.6887 93.4837V66.9316C10.6887 61.0783 15.4392 56.3277 21.2925 56.3277H50.9834C57.176 56.3277 61.7569 56.9216 65.1501 58.1092C69.9855 59.721 72.4456 62.5204 73.6332 66.253C76.0085 66.1681 78.2989 66.1681 80.1652 66.1681C81.6073 66.1681 83.0494 66.1681 84.4915 66.1681C82.7949 57.9395 78.0444 50.3896 65.0653 47.2508C62.4355 46.657 59.4664 46.2329 56.2429 45.9784V21.3774C56.2429 15.5241 60.9934 10.7736 66.8467 10.7736H93.4836C99.3369 10.7736 104.087 15.5241 104.087 21.3774V51.0682C104.087 74.9905 95.0954 74.9905 80.1652 74.9905C65.5743 74.9905 45.5542 74.9905 45.5542 109.602V139.292C45.5542 150.999 55.1401 160.585 66.8467 160.585H93.4836C105.19 160.585 114.776 150.999 114.776 139.292V114.946H139.123C150.829 114.946 160.415 105.36 160.415 93.6533V66.9316C160.5 55.2249 150.914 45.639 139.207 45.639Z" fill="#FA64A9"/>
</svg>
